STARTFONT 2.1
FONT -DEC-Terminal-Medium-R-Double Wide--14-140-75-75-C-160-iso8859-2
SIZE 14 75 75
FONTBOUNDINGBOX 16 15 0 -3

STARTPROPERTIES 24
FOUNDRY "Monotype"
FAMILY_NAME "VT"
WEIGHT_NAME "Regular"
SLANT "R"
SETWIDTH_NAME "Double Wide"
ADD_STYLE_NAME ""
PIXEL_SIZE 14
POINT_SIZE 140
RESOLUTION_X 75
RESOLUTION_Y 75
SPACING "C"
AVERAGE_WIDTH 160
CHARSET_REGISTRY "iso8859"
CHARSET_ENCODING "2"
FACE_NAME "VT DoubleWide ISO Latin2"
_DEC_DEVICE_FONTNAMES "PS=vt-dblwide-isolatin2"
COPYRIGHT "Copyright (c) 1993 Monotype Typography Ltd."
CAP_HEIGHT 8
X_HEIGHT 6
WEIGHT 10
QUAD_WIDTH 16
DEFAULT_CHAR 160
FONT_DESCENT 3
FONT_ASCENT 12
ENDPROPERTIES

CHARS 191

STARTCHAR space
ENCODING 32
SWIDTH 1136 0
DWIDTH 16 0
BBX 16 15 0 -3
BITMAP
0000
0000
0000
0000
0000
0000
0000
0000
0000
0000
0000
0000
0000
0000
0000
ENDCHAR

STARTCHAR exclam
ENCODING 33
SWIDTH 1136 0
DWIDTH 16 0
BBX 16 15 0 -3
BITMAP
0000
0180
0180
0180
0180
0180
0180
0180
0180
0000
0180
0180
0000
0000
0000
ENDCHAR

STARTCHAR quotedbl
ENCODING 34
SWIDTH 1136 0
DWIDTH 16 0
BBX 16 15 0 -3
BITMAP
0000
0660
0660
0660
0660
0000
0000
0000
0000
0000
0000
0000
0000
0000
0000
ENDCHAR

STARTCHAR numbersign
ENCODING 35
SWIDTH 1136 0
DWIDTH 16 0
BBX 16 15 0 -3
BITMAP
0000
0000
0000
0C30
0C30
3FFC
0C30
0C30
3FFC
0C30
0C30
0000
0000
0000
0000
ENDCHAR

STARTCHAR dollar
ENCODING 36
SWIDTH 1136 0
DWIDTH 16 0
BBX 16 15 0 -3
BITMAP
0000
00C0
00C0
07F8
0E1C
0E00
07F8
01FC
001C
0E1C
07F8
00C0
00C0
0000
0000
ENDCHAR

STARTCHAR percent
ENCODING 37
SWIDTH 1136 0
DWIDTH 16 0
BBX 16 15 0 -3
BITMAP
0000
0000
1E0C
3318
3330
1E60
00C0
0180
033C
0666
0C66
183C
0000
0000
0000
ENDCHAR

STARTCHAR ampersand
ENCODING 38
SWIDTH 1136 0
DWIDTH 16 0
BBX 16 15 0 -3
BITMAP
0000
0000
07C0
0E60
0C60
0CE0
07C0
0F8C
1CF8
3870
3CFC
1FCF
0000
0000
0000
ENDCHAR

STARTCHAR quoteright
ENCODING 39
SWIDTH 1136 0
DWIDTH 16 0
BBX 16 15 0 -3
BITMAP
0000
01E0
0300
0600
0000
0000
0000
0000
0000
0000
0000
0000
0000
0000
0000
ENDCHAR

STARTCHAR parenleft
ENCODING 40
SWIDTH 1136 0
DWIDTH 16 0
BBX 16 15 0 -3
BITMAP
0000
000C
0018
0038
0030
0070
0070
0070
0070
0030
0038
0018
000C
0000
0000
ENDCHAR

STARTCHAR parenright
ENCODING 41
SWIDTH 1136 0
DWIDTH 16 0
BBX 16 15 0 -3
BITMAP
0000
1800
0C00
0E00
0600
0700
0700
0700
0700
0600
0E00
0C00
1800
0000
0000
ENDCHAR

STARTCHAR asterisk
ENCODING 42
SWIDTH 1136 0
DWIDTH 16 0
BBX 16 15 0 -3
BITMAP
0000
0000
0C30
03C0
1FF8
03C0
0C30
0000
0000
0000
0000
0000
0000
0000
0000
ENDCHAR

STARTCHAR plus
ENCODING 43
SWIDTH 1136 0
DWIDTH 16 0
BBX 16 15 0 -3
BITMAP
0000
0000
0000
0180
0180
0180
1FF8
1FF8
0180
0180
0180
0000
0000
0000
0000
ENDCHAR

STARTCHAR comma
ENCODING 44
SWIDTH 1136 0
DWIDTH 16 0
BBX 16 15 0 -3
BITMAP
0000
0000
0000
0000
0000
0000
0000
0000
0000
0000
01C0
0180
0300
0600
0000
ENDCHAR

STARTCHAR minus
ENCODING 45
SWIDTH 1136 0
DWIDTH 16 0
BBX 16 15 0 -3
BITMAP
0000
0000
0000
0000
0000
0000
1FF8
1FF8
0000
0000
0000
0000
0000
0000
0000
ENDCHAR

STARTCHAR period
ENCODING 46
SWIDTH 1136 0
DWIDTH 16 0
BBX 16 15 0 -3
BITMAP
0000
0000
0000
0000
0000
0000
0000
0000
0000
0000
0380
0380
0000
0000
0000
ENDCHAR

STARTCHAR slash
ENCODING 47
SWIDTH 1136 0
DWIDTH 16 0
BBX 16 15 0 -3
BITMAP
0000
0000
001C
0038
0070
00E0
01C0
0380
0700
0E00
1C00
3800
0000
0000
0000
ENDCHAR

STARTCHAR zero
ENCODING 48
SWIDTH 1136 0
DWIDTH 16 0
BBX 16 15 0 -3
BITMAP
0000
0000
03E0
0E38
1C1C
1C1C
1C1C
1C1C
1C1C
1C1C
0E38
03E0
0000
0000
0000
ENDCHAR

STARTCHAR one
ENCODING 49
SWIDTH 1136 0
DWIDTH 16 0
BBX 16 15 0 -3
BITMAP
0000
0000
00E0
01E0
03E0
06E0
00E0
00E0
00E0
00E0
00E0
0FFE
0000
0000
0000
ENDCHAR

STARTCHAR two
ENCODING 50
SWIDTH 1136 0
DWIDTH 16 0
BBX 16 15 0 -3
BITMAP
0000
0000
0FF8
1C1C
181C
083C
00F8
03E0
0780
0F04
1E0C
1FFC
0000
0000
0000
ENDCHAR

STARTCHAR three
ENCODING 51
SWIDTH 1136 0
DWIDTH 16 0
BBX 16 15 0 -3
BITMAP
0000
0000
0FF8
1C3C
181C
0038
01E0
0038
001C
181C
1C3C
0FF8
0000
0000
0000
ENDCHAR

STARTCHAR four
ENCODING 52
SWIDTH 1136 0
DWIDTH 16 0
BBX 16 15 0 -3
BITMAP
0000
0000
0078
00F8
01F8
0338
0638
0C38
1C38
1FFE
0038
0038
0000
0000
0000
ENDCHAR

STARTCHAR five
ENCODING 53
SWIDTH 1136 0
DWIDTH 16 0
BBX 16 15 0 -3
BITMAP
0000
0000
0FF8
0E18
0E00
0E00
0FF8
0E3C
001C
001C
1E3C
0FF8
0000
0000
0000
ENDCHAR

STARTCHAR six
ENCODING 54
SWIDTH 1136 0
DWIDTH 16 0
BBX 16 15 0 -3
BITMAP
0000
0000
01F8
071C
0E00
1C00
1DFC
1E1E
1C0E
1C0E
0E1C
07F8
0000
0000
0000
ENDCHAR

STARTCHAR seven
ENCODING 55
SWIDTH 1136 0
DWIDTH 16 0
BBX 16 15 0 -3
BITMAP
0000
0000
0FFE
0C0E
0C1E
003C
0078
00F0
01E0
03C0
0780
0F00
0000
0000
0000
ENDCHAR

STARTCHAR eight
ENCODING 56
SWIDTH 1136 0
DWIDTH 16 0
BBX 16 15 0 -3
BITMAP
0000
0000
0FF8
1E3C
1C1C
0E38
07F0
0E38
1C1C
1C1C
1E3C
0FF8
0000
0000
0000
ENDCHAR

STARTCHAR nine
ENCODING 57
SWIDTH 1136 0
DWIDTH 16 0
BBX 16 15 0 -3
BITMAP
0000
0000
0FF0
3C38
381C
381C
1C3C
0FDC
001C
0038
1C70
0FC0
0000
0000
0000
ENDCHAR

STARTCHAR colon
ENCODING 58
SWIDTH 1136 0
DWIDTH 16 0
BBX 16 15 0 -3
BITMAP
0000
0000
0000
0000
0000
0380
0380
0000
0000
0000
0380
0380
0000
0000
0000
ENDCHAR

STARTCHAR semicolon
ENCODING 59
SWIDTH 1136 0
DWIDTH 16 0
BBX 16 15 0 -3
BITMAP
0000
0000
0000
0000
0000
0380
0380
0000
0000
0000
0380
0300
0600
0C00
0000
ENDCHAR

STARTCHAR less
ENCODING 60
SWIDTH 1136 0
DWIDTH 16 0
BBX 16 15 0 -3
BITMAP
0000
0000
0070
00E0
01C0
0380
0700
0700
0380
01C0
00E0
0070
0000
0000
0000
ENDCHAR

STARTCHAR equal
ENCODING 61
SWIDTH 1136 0
DWIDTH 16 0
BBX 16 15 0 -3
BITMAP
0000
0000
0000
0000
0000
3FFC
3FFC
0000
3FFC
3FFC
0000
0000
0000
0000
0000
ENDCHAR

STARTCHAR greater
ENCODING 62
SWIDTH 1136 0
DWIDTH 16 0
BBX 16 15 0 -3
BITMAP
0000
0000
0700
0380
01C0
00E0
0070
0070
00E0
01C0
0380
0700
0000
0000
0000
ENDCHAR

STARTCHAR question
ENCODING 63
SWIDTH 1136 0
DWIDTH 16 0
BBX 16 15 0 -3
BITMAP
0000
0000
0FE0
1C70
1870
00E0
01C0
0380
0300
0000
0300
0300
0000
0000
0000
ENDCHAR

STARTCHAR at
ENCODING 64
SWIDTH 1136 0
DWIDTH 16 0
BBX 16 15 0 -3
BITMAP
0000
0000
03FC
0E0E
1C07
38FF
3987
39CF
38F7
3800
1C00
07F8
0000
0000
0000
ENDCHAR

STARTCHAR A
ENCODING 65
SWIDTH 1136 0
DWIDTH 16 0
BBX 16 15 0 -3
BITMAP
0000
0000
00C0
01E0
03F0
0330
0738
0E1C
0FFC
1C0E
1C0E
3E1F
0000
0000
0000
ENDCHAR

STARTCHAR B
ENCODING 66
SWIDTH 1136 0
DWIDTH 16 0
BBX 16 15 0 -3
BITMAP
0000
0000
3FFC
1C1E
1C0E
1C1C
1FF8
1C1C
1C0E
1C0E
1C1E
3FFC
0000
0000
0000
ENDCHAR

STARTCHAR C
ENCODING 67
SWIDTH 1136 0
DWIDTH 16 0
BBX 16 15 0 -3
BITMAP
0000
0000
07FC
1E0E
1C06
3800
3800
3800
3802
1C06
1F0E
07FC
0000
0000
0000
ENDCHAR

STARTCHAR D
ENCODING 68
SWIDTH 1136 0
DWIDTH 16 0
BBX 16 15 0 -3
BITMAP
0000
0000
7FF0
1C3C
1C1C
1C0E
1C0E
1C0E
1C0E
1C1C
1C3C
7FF0
0000
0000
0000
ENDCHAR

STARTCHAR E
ENCODING 69
SWIDTH 1136 0
DWIDTH 16 0
BBX 16 15 0 -3
BITMAP
0000
0000
3FFC
0E0C
0E04
0E00
0FF0
0E00
0E00
0E04
0E0C
3FFC
0000
0000
0000
ENDCHAR

STARTCHAR F
ENCODING 70
SWIDTH 1136 0
DWIDTH 16 0
BBX 16 15 0 -3
BITMAP
0000
0000
1FFE
0706
0702
0700
0700
07F8
0700
0700
0700
1FC0
0000
0000
0000
ENDCHAR

STARTCHAR G
ENCODING 71
SWIDTH 1136 0
DWIDTH 16 0
BBX 16 15 0 -3
BITMAP
0000
0000
03FC
0E0C
1C04
3800
3800
383E
3806
1C06
1E0E
07FC
0000
0000
0000
ENDCHAR

STARTCHAR H
ENCODING 72
SWIDTH 1136 0
DWIDTH 16 0
BBX 16 15 0 -3
BITMAP
0000
0000
3E3E
1C1C
1C1C
1C1C
1FFC
1C1C
1C1C
1C1C
1C1C
3E3E
0000
0000
0000
ENDCHAR

STARTCHAR I
ENCODING 73
SWIDTH 1136 0
DWIDTH 16 0
BBX 16 15 0 -3
BITMAP
0000
0000
0FF8
01C0
01C0
01C0
01C0
01C0
01C0
01C0
01C0
0FF8
0000
0000
0000
ENDCHAR

STARTCHAR J
ENCODING 74
SWIDTH 1136 0
DWIDTH 16 0
BBX 16 15 0 -3
BITMAP
0000
0000
07F8
0038
0038
0038
0038
0038
0038
1838
1C78
0FF0
0000
0000
0000
ENDCHAR

STARTCHAR K
ENCODING 75
SWIDTH 1136 0
DWIDTH 16 0
BBX 16 15 0 -3
BITMAP
0000
0000
3F0E
0E1C
0E38
0E70
0EE0
0FF0
0E78
0E3C
0E1E
3F0F
0000
0000
0000
ENDCHAR

STARTCHAR L
ENCODING 76
SWIDTH 1136 0
DWIDTH 16 0
BBX 16 15 0 -3
BITMAP
0000
0000
1FC0
0700
0700
0700
0700
0700
0702
0706
070E
1FFE
0000
0000
0000
ENDCHAR

STARTCHAR M
ENCODING 77
SWIDTH 1136 0
DWIDTH 16 0
BBX 16 15 0 -3
BITMAP
0000
0000
3C0F
1E1E
1F3E
1D2E
1DEE
1CCE
1CCE
1CCE
1C0E
3C0F
0000
0000
0000
ENDCHAR

STARTCHAR N
ENCODING 78
SWIDTH 1136 0
DWIDTH 16 0
BBX 16 15 0 -3
BITMAP
0000
0000
3C0F
1E0E
1F0E
1D8E
1DCE
1CEE
1C6E
1C3E
1C1E
3C0E
0000
0000
0000
ENDCHAR

STARTCHAR O
ENCODING 79
SWIDTH 1136 0
DWIDTH 16 0
BBX 16 15 0 -3
BITMAP
0000
0000
07F0
1E3C
1C1C
380E
380E
380E
380E
1C1C
1E3C
07F0
0000
0000
0000
ENDCHAR

STARTCHAR P
ENCODING 80
SWIDTH 1136 0
DWIDTH 16 0
BBX 16 15 0 -3
BITMAP
0000
0000
3FFC
0E0E
0E07
0E07
0E07
0E0E
0FFC
0E00
0E00
3F80
0000
0000
0000
ENDCHAR

STARTCHAR Q
ENCODING 81
SWIDTH 1136 0
DWIDTH 16 0
BBX 16 15 0 -3
BITMAP
0000
0000
07F0
1E3C
1C1C
380E
380E
380E
380E
1C6C
1E3C
07F8
000E
0000
0000
ENDCHAR

STARTCHAR R
ENCODING 82
SWIDTH 1136 0
DWIDTH 16 0
BBX 16 15 0 -3
BITMAP
0000
0000
3FFC
0E1E
0E0E
0E0E
0E1C
0FF0
0E78
0E3C
0E1E
3E0F
0000
0000
0000
ENDCHAR

STARTCHAR S
ENCODING 83
SWIDTH 1136 0
DWIDTH 16 0
BBX 16 15 0 -3
BITMAP
0000
0000
03F8
0E0C
1C0C
1E00
0FF8
07FC
001E
180E
1C1C
0FF0
0000
0000
0000
ENDCHAR

STARTCHAR T
ENCODING 84
SWIDTH 1136 0
DWIDTH 16 0
BBX 16 15 0 -3
BITMAP
0000
0000
3FFE
31C6
21C2
01C0
01C0
01C0
01C0
01C0
01C0
07F0
0000
0000
0000
ENDCHAR

STARTCHAR U
ENCODING 85
SWIDTH 1136 0
DWIDTH 16 0
BBX 16 15 0 -3
BITMAP
0000
0000
3E3E
1C1C
1C1C
1C1C
1C1C
1C1C
1C1C
1C1C
0E38
07F0
0000
0000
0000
ENDCHAR

STARTCHAR V
ENCODING 86
SWIDTH 1136 0
DWIDTH 16 0
BBX 16 15 0 -3
BITMAP
0000
0000
780F
380E
1C1C
1C1C
0E38
0E38
0770
03E0
01C0
0080
0000
0000
0000
ENDCHAR

STARTCHAR W
ENCODING 87
SWIDTH 1136 0
DWIDTH 16 0
BBX 16 15 0 -3
BITMAP
0000
0000
780F
38C7
1CCE
1CCE
0EDC
0FFC
0738
0738
0210
0210
0000
0000
0000
ENDCHAR

STARTCHAR X
ENCODING 88
SWIDTH 1136 0
DWIDTH 16 0
BBX 16 15 0 -3
BITMAP
0000
0000
781E
1C38
0E70
07E0
03C0
03C0
07E0
0E70
1C38
781E
0000
0000
0000
ENDCHAR

STARTCHAR Y
ENCODING 89
SWIDTH 1136 0
DWIDTH 16 0
BBX 16 15 0 -3
BITMAP
0000
0000
780F
1C1C
0E38
0770
0360
01C0
01C0
01C0
01C0
03E0
0000
0000
0000
ENDCHAR

STARTCHAR Z
ENCODING 90
SWIDTH 1136 0
DWIDTH 16 0
BBX 16 15 0 -3
BITMAP
0000
0000
1FFC
183C
1078
00F0
01E0
03C0
0780
0F04
1E0C
1FFC
0000
0000
0000
ENDCHAR

STARTCHAR bracketleft
ENCODING 91
SWIDTH 1136 0
DWIDTH 16 0
BBX 16 15 0 -3
BITMAP
0000
007C
0070
0070
0070
0070
0070
0070
0070
0070
0070
0070
007C
0000
0000
ENDCHAR

STARTCHAR backslash
ENCODING 92
SWIDTH 1136 0
DWIDTH 16 0
BBX 16 15 0 -3
BITMAP
0000
0000
3800
1C00
0E00
0700
0380
01C0
00E0
0070
0038
001C
0000
0000
0000
ENDCHAR

STARTCHAR bracketright
ENCODING 93
SWIDTH 1136 0
DWIDTH 16 0
BBX 16 15 0 -3
BITMAP
0000
3E00
0E00
0E00
0E00
0E00
0E00
0E00
0E00
0E00
0E00
0E00
3E00
0000
0000
ENDCHAR

STARTCHAR asciicircum
ENCODING 94
SWIDTH 1136 0
DWIDTH 16 0
BBX 16 15 0 -3
BITMAP
01C0
03E0
0770
0E38
0000
0000
0000
0000
0000
0000
0000
0000
0000
0000
0000
ENDCHAR

STARTCHAR underscore
ENCODING 95
SWIDTH 1136 0
DWIDTH 16 0
BBX 16 15 0 -3
BITMAP
0000
0000
0000
0000
0000
0000
0000
0000
0000
0000
0000
3FFC
3FFC
0000
0000
ENDCHAR

STARTCHAR quoteleft
ENCODING 96
SWIDTH 1136 0
DWIDTH 16 0
BBX 16 15 0 -3
BITMAP
0000
03C0
00C0
0060
0000
0000
0000
0000
0000
0000
0000
0000
0000
0000
0000
ENDCHAR

STARTCHAR a
ENCODING 97
SWIDTH 1136 0
DWIDTH 16 0
BBX 16 15 0 -3
BITMAP
0000
0000
0000
0000
0FFC
1E1E
000E
000E
1FFE
3C0E
3C1E
1FEF
0000
0000
0000
ENDCHAR

STARTCHAR b
ENCODING 98
SWIDTH 1136 0
DWIDTH 16 0
BBX 16 15 0 -3
BITMAP
0000
0000
7C00
1C00
1DF8
1E1C
1C0E
1C0E
1C0E
1C0E
1E1C
1DF8
0000
0000
0000
ENDCHAR

STARTCHAR c
ENCODING 99
SWIDTH 1136 0
DWIDTH 16 0
BBX 16 15 0 -3
BITMAP
0000
0000
0000
0000
07FC
1C0E
3806
3800
3800
3C06
1E0E
07FC
0000
0000
0000
ENDCHAR

STARTCHAR d
ENCODING 100
SWIDTH 1136 0
DWIDTH 16 0
BBX 16 15 0 -3
BITMAP
0000
007C
001C
001C
07DC
1C3C
381C
381C
381C
381C
1C3C
07CE
0000
0000
0000
ENDCHAR

STARTCHAR e
ENCODING 101
SWIDTH 1136 0
DWIDTH 16 0
BBX 16 15 0 -3
BITMAP
0000
0000
0000
0000
07FC
1C0E
380E
3FFC
3800
3806
1C0E
0FFC
0000
0000
0000
ENDCHAR

STARTCHAR f
ENCODING 102
SWIDTH 1136 0
DWIDTH 16 0
BBX 16 15 0 -3
BITMAP
0000
0000
01FE
0380
0380
1FFC
0380
0380
0380
0380
0380
1FF8
0000
0000
0000
ENDCHAR

STARTCHAR g
ENCODING 103
SWIDTH 1136 0
DWIDTH 16 0
BBX 16 15 0 -3
BITMAP
0000
0000
0000
0000
07EF
1C1E
380E
380E
380E
1C1E
0FEE
000E
001C
1FF8
0000
ENDCHAR

STARTCHAR h
ENCODING 104
SWIDTH 1136 0
DWIDTH 16 0
BBX 16 15 0 -3
BITMAP
0000
7C00
1C00
1C00
1DF8
1E3C
1C1C
1C1C
1C1C
1C1C
1C1C
7C1F
0000
0000
0000
ENDCHAR

STARTCHAR i
ENCODING 105
SWIDTH 1139 0
DWIDTH 16 0
BBX 16 15 0 -3
BITMAP
0000
01C0
01C0
0000
1FC0
01C0
01C0
01C0
01C0
01C0
01C0
3FFE
0000
0000
0000
ENDCHAR

STARTCHAR j
ENCODING 106
SWIDTH 1136 0
DWIDTH 16 0
BBX 16 15 0 -3
BITMAP
0000
0038
0038
0000
0FF8
0038
0038
0038
0038
0038
0038
0038
0070
1FE0
0000
ENDCHAR

STARTCHAR k
ENCODING 107
SWIDTH 1136 0
DWIDTH 16 0
BBX 16 15 0 -3
BITMAP
0000
0000
7C00
1C00
1C1E
1C38
1CF0
1FE0
1F80
1DF0
1C7C
7C1F
0000
0000
0000
ENDCHAR

STARTCHAR l
ENCODING 108
SWIDTH 1136 0
DWIDTH 16 0
BBX 16 15 0 -3
BITMAP
0000
0000
0FC0
01C0
01C0
01C0
01C0
01C0
01C0
01C0
01C0
3FFE
0000
0000
0000
ENDCHAR

STARTCHAR m
ENCODING 109
SWIDTH 1136 0
DWIDTH 16 0
BBX 16 15 0 -3
BITMAP
0000
0000
0000
0000
F73C
79CE
718E
718E
718E
718E
718E
F18F
0000
0000
0000
ENDCHAR

STARTCHAR n
ENCODING 110
SWIDTH 1136 0
DWIDTH 16 0
BBX 16 15 0 -3
BITMAP
0000
0000
0000
0000
7DF8
1E3C
1C1C
1C1C
1C1C
1C1C
1C1C
7C1F
0000
0000
0000
ENDCHAR

STARTCHAR o
ENCODING 111
SWIDTH 1136 0
DWIDTH 16 0
BBX 16 15 0 -3
BITMAP
0000
0000
0000
0000
07F0
1C1C
380E
380E
380E
380E
1C1C
07F0
0000
0000
0000
ENDCHAR

STARTCHAR p
ENCODING 112
SWIDTH 1136 0
DWIDTH 16 0
BBX 16 15 0 -3
BITMAP
0000
0000
0000
0000
7DF8
1E1C
1C0E
1C0E
1C0E
1C0E
1E1C
1DF8
1C00
7F00
0000
ENDCHAR

STARTCHAR q
ENCODING 113
SWIDTH 1136 0
DWIDTH 16 0
BBX 16 15 0 -3
BITMAP
0000
0000
0000
0000
07DE
1C3C
381C
381C
381C
381C
1C3C
07DC
001C
007F
0000
ENDCHAR

STARTCHAR r
ENCODING 114
SWIDTH 1136 0
DWIDTH 16 0
BBX 16 15 0 -3
BITMAP
0000
0000
0000
0000
3F7C
078E
070E
0700
0700
0700
0700
7FF0
0000
0000
0000
ENDCHAR

STARTCHAR s
ENCODING 115
SWIDTH 1136 0
DWIDTH 16 0
BBX 16 15 0 -3
BITMAP
0000
0000
0000
0000
1FFC
3C0E
3800
1FFC
0FFE
000E
381E
1FFC
0000
0000
0000
ENDCHAR

STARTCHAR t
ENCODING 116
SWIDTH 1136 0
DWIDTH 16 0
BBX 16 15 0 -3
BITMAP
0000
0000
0700
0700
7FFC
0700
0700
0700
0700
0700
0780
03FC
0000
0000
0000
ENDCHAR

STARTCHAR u
ENCODING 117
SWIDTH 1136 0
DWIDTH 16 0
BBX 16 15 0 -3
BITMAP
0000
0000
0000
0000
7C7C
1C1C
1C1C
1C1C
1C1C
1C1C
1E3C
0FDF
0000
0000
0000
ENDCHAR

STARTCHAR v
ENCODING 118
SWIDTH 1136 0
DWIDTH 16 0
BBX 16 15 0 -3
BITMAP
0000
0000
0000
0000
F80F
380E
1C1C
0E38
0770
0360
01C0
0080
0000
0000
0000
ENDCHAR

STARTCHAR w
ENCODING 119
SWIDTH 1136 0
DWIDTH 16 0
BBX 16 15 0 -3
BITMAP
0000
0000
0000
0000
F81F
718E
318C
399C
1BD8
1A58
0E70
0C30
0000
0000
0000
ENDCHAR

STARTCHAR x
ENCODING 120
SWIDTH 1136 0
DWIDTH 16 0
BBX 16 15 0 -3
BITMAP
0000
0000
0000
0000
781E
1C38
0E70
07E0
03C0
0E70
1C38
781E
0000
0000
0000
ENDCHAR

STARTCHAR y
ENCODING 121
SWIDTH 1136 0
DWIDTH 16 0
BBX 16 15 0 -3
BITMAP
0000
0000
0000
0000
F81F
380E
1C1C
0E38
0770
03E0
01C0
0380
0700
3C00
0000
ENDCHAR

STARTCHAR z
ENCODING 122
SWIDTH 1136 0
DWIDTH 16 0
BBX 16 15 0 -3
BITMAP
0000
0000
0000
0000
3FFC
30F0
21E0
03C0
0780
0F04
1E0C
3FFC
0000
0000
0000
ENDCHAR

STARTCHAR braceleft
ENCODING 123
SWIDTH 1136 0
DWIDTH 16 0
BBX 16 15 0 -3
BITMAP
0000
007E
00E0
01C0
01C0
00E0
07C0
00E0
01C0
01C0
01C0
00E0
007E
0000
0000
ENDCHAR

STARTCHAR bar
ENCODING 124
SWIDTH 1136 0
DWIDTH 16 0
BBX 16 15 0 -3
BITMAP
0000
00C0
00C0
00C0
00C0
00C0
00C0
00C0
00C0
00C0
00C0
00C0
0000
0000
0000
ENDCHAR

STARTCHAR braceright
ENCODING 125
SWIDTH 1136 0
DWIDTH 16 0
BBX 16 15 0 -3
BITMAP
0000
3F00
0380
01C0
01C0
0380
01F0
0380
01C0
01C0
01C0
0380
3F00
0000
0000
ENDCHAR

STARTCHAR asciitilde
ENCODING 126
SWIDTH 1136 0
DWIDTH 16 0
BBX 16 15 0 -3
BITMAP
0000
0710
0FF0
08E0
0000
0000
0000
0000
0000
0000
0000
0000
0000
0000
0000
ENDCHAR

STARTCHAR space
ENCODING 160
SWIDTH 1136 0
DWIDTH 16 0
BBX 16 15 0 -3
BITMAP
0000
0000
0000
0000
0000
0000
0000
0000
0000
0000
0000
0000
0000
0000
0000
ENDCHAR

STARTCHAR Aogonek
ENCODING 161
SWIDTH 1136 0
DWIDTH 16 0
BBX 16 15 0 -3
BITMAP
0000
0000
0000
01E0
03F0
0330
0738
0E1C
0FFC
1C0E
1C0E
3E1F
001C
000F
0000
ENDCHAR

STARTCHAR breve
ENCODING 162
SWIDTH 1136 0
DWIDTH 16 0
BBX 16 15 0 -3
BITMAP
0E70
03C0
0000
0000
0000
0000
0000
0000
0000
0000
0000
0000
0000
0000
0000
ENDCHAR

STARTCHAR Lslash
ENCODING 163
SWIDTH 1136 0
DWIDTH 16 0
BBX 16 15 0 -3
BITMAP
0000
0000
0000
1FC0
0700
0740
07C0
1F00
1702
0706
070E
1FFE
0000
0000
0000
ENDCHAR

STARTCHAR currency
ENCODING 164
SWIDTH 1136 0
DWIDTH 16 0
BBX 16 15 0 -3
BITMAP
0000
0000
0000
0000
1818
0FF0
1C38
1C38
1C38
0FF0
1818
0000
0000
0000
0000
ENDCHAR

STARTCHAR Lcaron
ENCODING 165
SWIDTH 1136 0
DWIDTH 16 0
BBX 16 15 0 -3
BITMAP
0000
0000
0000
1FDC
070C
0718
0700
0700
0702
0706
070E
1FFE
0000
0000
0000
ENDCHAR

STARTCHAR Sacute
ENCODING 166
SWIDTH 1136 0
DWIDTH 16 0
BBX 16 15 0 -3
BITMAP
0060
00C0
0000
07F8
1C0C
1E00
0FF8
07FC
001E
180E
1C1C
0FF0
0000
0000
0000
ENDCHAR

STARTCHAR section
ENCODING 167
SWIDTH 1136 0
DWIDTH 16 0
BBX 16 15 0 -3
BITMAP
0000
07F8
0F1C
0E00
0E00
07F8
0E1C
0E1C
07F8
001C
001C
0E3C
07F8
0000
0000
ENDCHAR

STARTCHAR dieresis
ENCODING 168
SWIDTH 1136 0
DWIDTH 16 0
BBX 16 15 0 -3
BITMAP
0000
0C60
0C60
0000
0000
0000
0000
0000
0000
0000
0000
0000
0000
0000
0000
ENDCHAR

STARTCHAR Scaron
ENCODING 169
SWIDTH 1136 0
DWIDTH 16 0
BBX 16 15 0 -3
BITMAP
0330
01E0
0000
07F8
1C0C
1E00
0FF8
07FC
001E
180E
1C1C
0FF0
0000
0000
0000
ENDCHAR

STARTCHAR Scommaaccent
ENCODING 170
SWIDTH 1136 0
DWIDTH 16 0
BBX 16 15 0 -3
BITMAP
0000
0000
0000
07F8
1C0C
1E00
0FF8
07FC
001E
180E
1C1C
0FF0
0000
01C0
00C0
ENDCHAR

STARTCHAR Tcaron
ENCODING 171
SWIDTH 1136 0
DWIDTH 16 0
BBX 16 15 0 -3
BITMAP
0330
01E0
0000
3FFE
31C6
21C2
01C0
01C0
01C0
01C0
01C0
07F0
0000
0000
0000
ENDCHAR

STARTCHAR Zacute
ENCODING 172
SWIDTH 1136 0
DWIDTH 16 0
BBX 16 15 0 -3
BITMAP
00C0
0180
0000
1FFC
1878
10F0
01E0
03C0
0780
0F04
1E0C
1FFC
0000
0000
0000
ENDCHAR

STARTCHAR hyphen
ENCODING 173
SWIDTH 1136 0
DWIDTH 16 0
BBX 16 15 0 -3
BITMAP
0000
0000
0000
0000
0000
0000
07E0
07E0
0000
0000
0000
0000
0000
0000
0000
ENDCHAR

STARTCHAR Zcaron
ENCODING 174
SWIDTH 1136 0
DWIDTH 16 0
BBX 16 15 0 -3
BITMAP
0330
01E0
0000
1FFC
1878
10F0
01E0
03C0
0780
0F04
1E0C
1FFC
0000
0000
0000
ENDCHAR

STARTCHAR Zdotaccent
ENCODING 175
SWIDTH 1136 0
DWIDTH 16 0
BBX 16 15 0 -3
BITMAP
0180
0180
0000
1FFC
1878
10F0
01E0
03C0
0780
0F04
1E0C
1FFC
0000
0000
0000
ENDCHAR

STARTCHAR degree
ENCODING 176
SWIDTH 1136 0
DWIDTH 16 0
BBX 16 15 0 -3
BITMAP
0000
07C0
0EE0
0EE0
07C0
0000
0000
0000
0000
0000
0000
0000
0000
0000
0000
ENDCHAR

STARTCHAR aogonek
ENCODING 177
SWIDTH 1136 0
DWIDTH 16 0
BBX 16 15 0 -3
BITMAP
0000
0000
0000
0000
0FFC
1E1E
000E
000E
1FFE
3C0E
3C1E
1FEF
001C
000F
0000
ENDCHAR

STARTCHAR ogonek
ENCODING 178
SWIDTH 1136 0
DWIDTH 16 0
BBX 16 15 0 -3
BITMAP
0000
0000
0000
0000
0000
0000
0000
0000
0000
0000
0000
0000
0380
01E0
0000
ENDCHAR

STARTCHAR lslash
ENCODING 179
SWIDTH 1136 0
DWIDTH 16 0
BBX 16 15 0 -3
BITMAP
0000
0000
0FC0
01C0
01C0
01C4
01FC
03E0
1FC0
11C0
01C0
3FFE
0000
0000
0000
ENDCHAR

STARTCHAR acute
ENCODING 180
SWIDTH 1136 0
DWIDTH 16 0
BBX 16 15 0 -3
BITMAP
00C0
0180
0300
0000
0000
0000
0000
0000
0000
0000
0000
0000
0000
0000
0000
ENDCHAR

STARTCHAR lcaron
ENCODING 181
SWIDTH 1136 0
DWIDTH 16 0
BBX 16 15 0 -3
BITMAP
0000
0000
0FDC
01CC
01D8
01C0
01C0
01C0
01C0
01C0
01C0
3FFE
0000
0000
0000
ENDCHAR

STARTCHAR sacute
ENCODING 182
SWIDTH 1136 0
DWIDTH 16 0
BBX 16 15 0 -3
BITMAP
0060
00C0
0180
0000
1FFC
3C0E
3800
1FFC
0FFE
000E
381E
1FFC
0000
0000
0000
ENDCHAR

STARTCHAR caron
ENCODING 183
SWIDTH 1136 0
DWIDTH 16 0
BBX 16 15 0 -3
BITMAP
0660
03C0
0000
0000
0000
0000
0000
0000
0000
0000
0000
0000
0000
0000
0000
ENDCHAR

STARTCHAR commaaccent
ENCODING 184
SWIDTH 1136 0
DWIDTH 16 0
BBX 16 15 0 -3
BITMAP
0000
0000
0000
0000
0000
0000
0000
0000
0000
0000
0000
0000
01C0
00C0
0000
ENDCHAR

STARTCHAR scaron
ENCODING 185
SWIDTH 1136 0
DWIDTH 16 0
BBX 16 15 0 -3
BITMAP
0330
01E0
00C0
0000
1FFC
3C0E
3800
1FFC
0FFE
000E
381E
1FFC
0000
0000
0000
ENDCHAR

STARTCHAR scommaaccent
ENCODING 186
SWIDTH 1136 0
DWIDTH 16 0
BBX 16 15 0 -3
BITMAP
0000
0000
0000
0000
1FFC
3C0E
3800
1FFC
0FFE
000E
381E
1FFC
0000
0380
0180
ENDCHAR

STARTCHAR tcaron
ENCODING 187
SWIDTH 1136 0
DWIDTH 16 0
BBX 16 15 0 -3
BITMAP
0000
0000
071C
070C
7FFC
0700
0700
0700
0700
0700
0780
03FC
0000
0000
0000
ENDCHAR

STARTCHAR zacute
ENCODING 188
SWIDTH 1136 0
DWIDTH 16 0
BBX 16 15 0 -3
BITMAP
00C0
0180
0300
0000
3FFC
30F0
21E0
03C0
0780
0F04
1E0C
3FFC
0000
0000
0000
ENDCHAR

STARTCHAR hungarumlaut
ENCODING 189
SWIDTH 1136 0
DWIDTH 16 0
BBX 16 15 0 -3
BITMAP
03B0
06E0
0000
0000
0000
0000
0000
0000
0000
0000
0000
0000
0000
0000
0000
ENDCHAR

STARTCHAR zcaron
ENCODING 190
SWIDTH 1136 0
DWIDTH 16 0
BBX 16 15 0 -3
BITMAP
0660
03C0
0180
0000
3FFC
30F0
21E0
03C0
0780
0F04
1E0C
3FFC
0000
0000
0000
ENDCHAR

STARTCHAR zdotaccent
ENCODING 191
SWIDTH 1136 0
DWIDTH 16 0
BBX 16 15 0 -3
BITMAP
0000
0300
0300
0000
3FFC
30F0
21E0
03C0
0780
0F04
1E0C
3FFC
0000
0000
0000
ENDCHAR

STARTCHAR Racute
ENCODING 192
SWIDTH 1136 0
DWIDTH 16 0
BBX 16 15 0 -3
BITMAP
0060
00C0
0000
3FF8
0E1C
0E0E
0E1C
0FF0
0E78
0E3C
0E1E
3E0F
0000
0000
0000
ENDCHAR

STARTCHAR Aacute
ENCODING 193
SWIDTH 1136 0
DWIDTH 16 0
BBX 16 15 0 -3
BITMAP
0030
0060
0000
01E0
03F0
0330
0738
0E1C
0FFC
1C0E
1C0E
3E1F
0000
0000
0000
ENDCHAR

STARTCHAR Acircumflex
ENCODING 194
SWIDTH 1136 0
DWIDTH 16 0
BBX 16 15 0 -3
BITMAP
01E0
0330
0000
01E0
03F0
0330
0738
0E1C
0FFC
1C0E
1C0E
3E1F
0000
0000
0000
ENDCHAR

STARTCHAR Abreve
ENCODING 195
SWIDTH 1136 0
DWIDTH 16 0
BBX 16 15 0 -3
BITMAP
0738
01E0
0000
01E0
03F0
0330
0738
0E1C
0FFC
1C0E
1C0E
3E1F
0000
0000
0000
ENDCHAR

STARTCHAR Adieresis
ENCODING 196
SWIDTH 1136 0
DWIDTH 16 0
BBX 16 15 0 -3
BITMAP
0330
0330
0000
01E0
03F0
0330
0738
0E1C
0FFC
1C0E
1C0E
3E1F
0000
0000
0000
ENDCHAR

STARTCHAR Lacute
ENCODING 197
SWIDTH 1136 0
DWIDTH 16 0
BBX 16 15 0 -3
BITMAP
0180
0300
0000
1FC0
0700
0700
0700
0700
0702
0706
070E
1FFE
0000
0000
0000
ENDCHAR

STARTCHAR Cacute
ENCODING 198
SWIDTH 1136 0
DWIDTH 16 0
BBX 16 15 0 -3
BITMAP
0060
00C0
0000
07FC
1C06
3806
3800
3800
3802
1C06
1F0E
07FC
0000
0000
0000
ENDCHAR

STARTCHAR Ccedilla
ENCODING 199
SWIDTH 1136 0
DWIDTH 16 0
BBX 16 15 0 -3
BITMAP
0000
0000
0000
07FC
1C06
3806
3800
3800
3802
1C06
1F0E
07FC
0060
00C0
0000
ENDCHAR

STARTCHAR Ccaron
ENCODING 200
SWIDTH 1136 0
DWIDTH 16 0
BBX 16 15 0 -3
BITMAP
0198
00F0
0000
07FC
1C06
3806
3800
3800
3802
1C06
1F0E
07FC
0000
0000
0000
ENDCHAR

STARTCHAR Eacute
ENCODING 201
SWIDTH 1136 0
DWIDTH 16 0
BBX 16 15 0 -3
BITMAP
0060
00C0
0000
3FFC
0E0C
0E04
0E00
0FF0
0E00
0E04
0E0C
3FFC
0000
0000
0000
ENDCHAR

STARTCHAR Eogonek
ENCODING 202
SWIDTH 1136 0
DWIDTH 16 0
BBX 16 15 0 -3
BITMAP
0000
0000
0000
3FFC
0E0C
0E04
0E00
0FF0
0E00
0E04
0E0C
3FFC
00E0
0078
0000
ENDCHAR

STARTCHAR Edieresis
ENCODING 203
SWIDTH 1136 0
DWIDTH 16 0
BBX 16 15 0 -3
BITMAP
0330
0330
0000
3FFC
0E0C
0E04
0E00
0FF0
0E00
0E04
0E0C
3FFC
0000
0000
0000
ENDCHAR

STARTCHAR Ecaron
ENCODING 204
SWIDTH 1136 0
DWIDTH 16 0
BBX 16 15 0 -3
BITMAP
0330
01E0
0000
3FFC
0E0C
0E04
0E00
0FF0
0E00
0E04
0E0C
3FFC
0000
0000
0000
ENDCHAR

STARTCHAR Iacute
ENCODING 205
SWIDTH 1136 0
DWIDTH 16 0
BBX 16 15 0 -3
BITMAP
0060
00C0
0000
0FF8
01C0
01C0
01C0
01C0
01C0
01C0
01C0
0FF8
0000
0000
0000
ENDCHAR

STARTCHAR Icircumflex
ENCODING 206
SWIDTH 1136 0
DWIDTH 16 0
BBX 16 15 0 -3
BITMAP
01E0
0330
0000
0FF8
01C0
01C0
01C0
01C0
01C0
01C0
01C0
0FF8
0000
0000
0000
ENDCHAR

STARTCHAR Dcaron
ENCODING 207
SWIDTH 1136 0
DWIDTH 16 0
BBX 16 15 0 -3
BITMAP
0660
03C0
0000
7FF8
1C1C
1C0E
1C0E
1C0E
1C0E
1C1C
1C3C
7FF0
0000
0000
0000
ENDCHAR

STARTCHAR Dcroat
ENCODING 208
SWIDTH 1136 0
DWIDTH 16 0
BBX 16 15 0 -3
BITMAP
0000
0000
0000
7FF8
1C1C
1C0E
7F0E
7F0E
1C0E
1C1C
1C3C
7FF0
0000
0000
0000
ENDCHAR

STARTCHAR Nacute
ENCODING 209
SWIDTH 1136 0
DWIDTH 16 0
BBX 16 15 0 -3
BITMAP
0060
00C0
0000
3C0F
1F0E
1F8E
1DCE
1CEE
1C6E
1C3E
1C1E
3C0E
0000
0000
0000
ENDCHAR

STARTCHAR Ncaron
ENCODING 210
SWIDTH 1136 0
DWIDTH 16 0
BBX 16 15 0 -3
BITMAP
0330
01E0
0000
3C0F
1F0E
1F8E
1DCE
1CEE
1C6E
1C3E
1C1E
3C0E
0000
0000
0000
ENDCHAR

STARTCHAR Oacute
ENCODING 211
SWIDTH 1136 0
DWIDTH 16 0
BBX 16 15 0 -3
BITMAP
0060
00C0
0000
07F0
1E3C
3C1E
380E
380E
380E
1C1C
1E3C
07F0
0000
0000
0000
ENDCHAR

STARTCHAR Ocircumflex
ENCODING 212
SWIDTH 1136 0
DWIDTH 16 0
BBX 16 15 0 -3
BITMAP
01E0
0330
0000
07F0
1E3C
3C1E
380E
380E
380E
1C1C
1E3C
07F0
0000
0000
0000
ENDCHAR

STARTCHAR Ohungarumlaut
ENCODING 213
SWIDTH 1136 0
DWIDTH 16 0
BBX 16 15 0 -3
BITMAP
01B0
0360
0000
07F0
1E3C
3C1E
380E
380E
380E
1C1C
1E3C
07F0
0000
0000
0000
ENDCHAR

STARTCHAR Odieresis
ENCODING 214
SWIDTH 1136 0
DWIDTH 16 0
BBX 16 15 0 -3
BITMAP
0630
0630
0000
07F0
1E3C
3C1E
380E
380E
380E
1C1C
1E3C
07F0
0000
0000
0000
ENDCHAR

STARTCHAR multiply
ENCODING 215
SWIDTH 1136 0
DWIDTH 16 0
BBX 16 15 0 -3
BITMAP
0000
0000
0000
0E38
0770
03E0
01C0
01C0
03E0
0770
0E38
0000
0000
0000
0000
ENDCHAR

STARTCHAR Rcaron
ENCODING 216
SWIDTH 1136 0
DWIDTH 16 0
BBX 16 15 0 -3
BITMAP
0330
01E0
0000
3FF8
0E1C
0E0E
0E1C
0FF0
0E78
0E3C
0E1E
3E0F
0000
0000
0000
ENDCHAR

STARTCHAR Uring
ENCODING 217
SWIDTH 1136 0
DWIDTH 16 0
BBX 16 15 0 -3
BITMAP
01E0
0330
01E0
3E3E
1C1C
1C1C
1C1C
1C1C
1C1C
1C1C
0E38
07F0
0000
0000
0000
ENDCHAR

STARTCHAR Uacute
ENCODING 218
SWIDTH 1136 0
DWIDTH 16 0
BBX 16 15 0 -3
BITMAP
0060
00C0
0000
3E3E
1C1C
1C1C
1C1C
1C1C
1C1C
1C1C
0E38
07F0
0000
0000
0000
ENDCHAR

STARTCHAR Uhungarumlaut
ENCODING 219
SWIDTH 1136 0
DWIDTH 16 0
BBX 16 15 0 -3
BITMAP
0198
0330
0000
3E3E
1C1C
1C1C
1C1C
1C1C
1C1C
1C1C
0E38
07F0
0000
0000
0000
ENDCHAR

STARTCHAR Udieresis
ENCODING 220
SWIDTH 1136 0
DWIDTH 16 0
BBX 16 15 0 -3
BITMAP
0630
0630
0000
3E3E
1C1C
1C1C
1C1C
1C1C
1C1C
1C1C
0E38
07F0
0000
0000
0000
ENDCHAR

STARTCHAR Yacute
ENCODING 221
SWIDTH 1136 0
DWIDTH 16 0
BBX 16 15 0 -3
BITMAP
00C0
0180
0000
780F
1E3C
0770
0360
01C0
01C0
01C0
01C0
03E0
0000
0000
0000
ENDCHAR

STARTCHAR Tcommaaccent
ENCODING 222
SWIDTH 1136 0
DWIDTH 16 0
BBX 16 15 0 -3
BITMAP
0000
0000
0000
3FFE
31C6
21C2
01C0
01C0
01C0
01C0
01C0
07F0
0000
01C0
00C0
ENDCHAR

STARTCHAR germandbls
ENCODING 223
SWIDTH 1136 0
DWIDTH 16 0
BBX 16 15 0 -3
BITMAP
0000
0000
03FC
0E1E
1C0E
1C0E
7DF8
1C0E
1C0E
1C0E
1C1E
1DF8
7800
0000
0000
ENDCHAR

STARTCHAR racute
ENCODING 224
SWIDTH 1136 0
DWIDTH 16 0
BBX 16 15 0 -3
BITMAP
0030
0060
00C0
0000
3F7C
078E
070E
0700
0700
0700
0700
7FF0
0000
0000
0000
ENDCHAR

STARTCHAR aacute
ENCODING 225
SWIDTH 1136 0
DWIDTH 16 0
BBX 16 15 0 -3
BITMAP
0030
0060
00C0
0000
0FFC
1E1E
000E
000E
1FFE
3C0E
3C1E
1FEF
0000
0000
0000
ENDCHAR

STARTCHAR acircumflex
ENCODING 226
SWIDTH 1136 0
DWIDTH 16 0
BBX 16 15 0 -3
BITMAP
00C0
01E0
0330
0000
0FFC
1E1E
000E
000E
1FFE
3C0E
3C1E
1FEF
0000
0000
0000
ENDCHAR

STARTCHAR abreve
ENCODING 227
SWIDTH 1136 0
DWIDTH 16 0
BBX 16 15 0 -3
BITMAP
0000
0738
01E0
0000
0FFC
1E1E
000E
000E
1FFE
3C0E
3C1E
1FEF
0000
0000
0000
ENDCHAR

STARTCHAR adieresis
ENCODING 228
SWIDTH 1136 0
DWIDTH 16 0
BBX 16 15 0 -3
BITMAP
0000
0318
0318
0000
0FFC
1E1E
000E
000E
1FFE
3C0E
3C1E
1FEF
0000
0000
0000
ENDCHAR

STARTCHAR lacute
ENCODING 229
SWIDTH 1136 0
DWIDTH 16 0
BBX 16 15 0 -3
BITMAP
00C0
0180
0000
0FC0
01C0
01C0
01C0
01C0
01C0
01C0
01C0
3FFE
0000
0000
0000
ENDCHAR

STARTCHAR cacute
ENCODING 230
SWIDTH 1136 0
DWIDTH 16 0
BBX 16 15 0 -3
BITMAP
0030
0060
00C0
0000
07FC
1C0E
3806
3800
3800
3C06
1E0E
07FC
0000
0000
0000
ENDCHAR

STARTCHAR ccedilla
ENCODING 231
SWIDTH 1137 0
DWIDTH 16 0
BBX 16 15 0 -3
BITMAP
0000
0000
0000
0000
07FC
1C0E
3806
3800
3800
3C06
1E0E
07FC
0060
00C0
0000
ENDCHAR

STARTCHAR ccaron
ENCODING 232
SWIDTH 1136 0
DWIDTH 16 0
BBX 16 15 0 -3
BITMAP
0330
01E0
00C0
0000
07FC
1C0E
3806
3800
3800
3C06
1E0E
07FC
0000
0000
0000
ENDCHAR

STARTCHAR eacute
ENCODING 233
SWIDTH 1136 0
DWIDTH 16 0
BBX 16 15 0 -3
BITMAP
0060
00C0
0180
0000
07FC
1C0E
380E
3FFC
3800
3806
1C0E
0FFC
0000
0000
0000
ENDCHAR

STARTCHAR eogonek
ENCODING 234
SWIDTH 1136 0
DWIDTH 16 0
BBX 16 15 0 -3
BITMAP
0000
0000
0000
0000
07FC
1C0E
380E
3FFC
3800
3806
1C0E
0FFC
0380
01E0
0000
ENDCHAR

STARTCHAR edieresis
ENCODING 235
SWIDTH 1136 0
DWIDTH 16 0
BBX 16 15 0 -3
BITMAP
0000
0318
0318
0000
07FC
1C0E
380E
3FFC
3800
3806
1C0E
0FFC
0000
0000
0000
ENDCHAR

STARTCHAR ecaron
ENCODING 236
SWIDTH 1136 0
DWIDTH 16 0
BBX 16 15 0 -3
BITMAP
0330
01E0
00C0
0000
07FC
1C0E
380E
3FFC
3800
3806
1C0E
0FFC
0000
0000
0000
ENDCHAR

STARTCHAR iacute
ENCODING 237
SWIDTH 1136 0
DWIDTH 16 0
BBX 16 15 0 -3
BITMAP
0060
00C0
0180
0000
1FC0
01C0
01C0
01C0
01C0
01C0
01C0
3FFE
0000
0000
0000
ENDCHAR

STARTCHAR icircumflex
ENCODING 238
SWIDTH 1136 0
DWIDTH 16 0
BBX 16 15 0 -3
BITMAP
0180
03C0
0660
0000
1FC0
01C0
01C0
01C0
01C0
01C0
01C0
3FFE
0000
0000
0000
ENDCHAR

STARTCHAR dcaron
ENCODING 239
SWIDTH 1136 0
DWIDTH 16 0
BBX 16 15 0 -3
BITMAP
0000
01F7
0073
0076
1F70
70F0
E070
E070
E070
E070
70F0
1F38
0000
0000
0000
ENDCHAR

STARTCHAR dcroat
ENCODING 240
SWIDTH 1136 0
DWIDTH 16 0
BBX 16 15 0 -3
BITMAP
0000
007C
01FF
001C
07DC
1C3C
381C
381C
381C
381C
1C3C
07CE
0000
0000
0000
ENDCHAR

STARTCHAR nacute
ENCODING 241
SWIDTH 1136 0
DWIDTH 16 0
BBX 16 15 0 -3
BITMAP
0030
0060
00C0
0000
7DF8
1E3C
1C1C
1C1C
1C1C
1C1C
1C1C
7C1F
0000
0000
0000
ENDCHAR

STARTCHAR ncaron
ENCODING 242
SWIDTH 1136 0
DWIDTH 16 0
BBX 16 15 0 -3
BITMAP
0330
01E0
00C0
0000
7DF8
1E3C
1C1C
1C1C
1C1C
1C1C
1C1C
7C1F
0000
0000
0000
ENDCHAR

STARTCHAR oacute
ENCODING 243
SWIDTH 1136 0
DWIDTH 16 0
BBX 16 15 0 -3
BITMAP
0060
00C0
0180
0000
07F0
1C1C
380E
380E
380E
380E
1C1C
07F0
0000
0000
0000
ENDCHAR

STARTCHAR ocircumflex
ENCODING 244
SWIDTH 1136 0
DWIDTH 16 0
BBX 16 15 0 -3
BITMAP
00C0
01E0
0330
0000
07F0
1C1C
380E
380E
380E
380E
1C1C
07F0
0000
0000
0000
ENDCHAR

STARTCHAR ohungarumlaut
ENCODING 245
SWIDTH 1136 0
DWIDTH 16 0
BBX 16 15 0 -3
BITMAP
0198
0330
0660
0000
07F0
1C1C
380E
380E
380E
380E
1C1C
07F0
0000
0000
0000
ENDCHAR

STARTCHAR odieresis
ENCODING 246
SWIDTH 1136 0
DWIDTH 16 0
BBX 16 15 0 -3
BITMAP
0000
0630
0630
0000
07F0
1C1C
380E
380E
380E
380E
1C1C
07F0
0000
0000
0000
ENDCHAR

STARTCHAR divide
ENCODING 247
SWIDTH 1136 0
DWIDTH 16 0
BBX 16 15 0 -3
BITMAP
0000
0000
0000
0180
0180
0000
1FF8
1FF8
0000
0180
0180
0000
0000
0000
0000
ENDCHAR

STARTCHAR rcaron
ENCODING 248
SWIDTH 1136 0
DWIDTH 16 0
BBX 16 15 0 -3
BITMAP
0330
01E0
00C0
0000
3F7C
078E
070E
0700
0700
0700
0700
7FF0
0000
0000
0000
ENDCHAR

STARTCHAR uring
ENCODING 249
SWIDTH 1136 0
DWIDTH 16 0
BBX 16 15 0 -3
BITMAP
03C0
0660
03C0
0000
7C7C
1C1C
1C1C
1C1C
1C1C
1C1C
1E3C
0FDF
0000
0000
0000
ENDCHAR

STARTCHAR uacute
ENCODING 250
SWIDTH 1136 0
DWIDTH 16 0
BBX 16 15 0 -3
BITMAP
0060
00C0
0180
0000
7C7C
1C1C
1C1C
1C1C
1C1C
1C1C
1E3C
0FDF
0000
0000
0000
ENDCHAR

STARTCHAR uhungarumlaut
ENCODING 251
SWIDTH 1136 0
DWIDTH 16 0
BBX 16 15 0 -3
BITMAP
0330
0660
0CC0
0000
7C7C
1C1C
1C1C
1C1C
1C1C
1C1C
1E3C
0FDF
0000
0000
0000
ENDCHAR

STARTCHAR udieresis
ENCODING 252
SWIDTH 1136 0
DWIDTH 16 0
BBX 16 15 0 -3
BITMAP
0000
0630
0630
0000
7C7C
1C1C
1C1C
1C1C
1C1C
1C1C
1E3C
0FDF
0000
0000
0000
ENDCHAR

STARTCHAR yacute
ENCODING 253
SWIDTH 1136 0
DWIDTH 16 0
BBX 16 15 0 -3
BITMAP
0060
00C0
0180
0000
F81F
380E
1C1C
0E38
0770
03E0
01C0
0380
0700
3C00
0000
ENDCHAR

STARTCHAR tcommaaccent
ENCODING 254
SWIDTH 1136 0
DWIDTH 16 0
BBX 16 15 0 -3
BITMAP
0000
0000
0700
0700
7FFC
0700
0700
0700
0700
0700
0780
03FC
0000
0070
0030
ENDCHAR

STARTCHAR dotaccent
ENCODING 255
SWIDTH 1136 0
DWIDTH 16 0
BBX 16 15 0 -3
BITMAP
0180
0180
0000
0000
0000
0000
0000
0000
0000
0000
0000
0000
0000
0000
0000
ENDCHAR
ENDFONT
